# xmcd
#
# Track frame offsets: 
#        150
#        18209
#        43045
#        62705
#        88221
#        128722
#        149670
#        171514
#        188086
#        206455
#        227449
#        249907
#        270833
#        288835
#        318282
#
# Disc length: 4468 seconds
#
# Revision: 0
# Processed by: cddbd v1.5.2PL0 Copyright (c) Steve Scherf et al.
# Submitted via: ExactAudioCopy v1.3
#
DISCID=cc11720f
DTITLE=Various Artist - Urban Blues Mellow Dream
DYEAR=2018
DGENRE=Blues
TTITLE0=LOVE TRIP
TTITLE1=mellow medicine
TTITLE2=LAZY LOVE
TTITLE3=SEASON
TTITLE4=LOVE VISTA (featuring CLEMENTINE)
TTITLE5=Aliento Verde
TTITLE6=ハスリン・ダン
TTITLE7=たばこ止めないの
TTITLE8=君にNight and Day
TTITLE9=セニョリータ・マリア
TTITLE10=LET’S GET IT ON
TTITLE11=星くず
TTITLE12=クリスタル・シティー
TTITLE13=BEAUTY
TTITLE14=GOOD NIGHT
EXTD=
EXTT0=
EXTT1=
EXTT2=
EXTT3=
EXTT4=
EXTT5=
EXTT6=
EXTT7=
EXTT8=
EXTT9=
EXTT10=
EXTT11=
EXTT12=
EXTT13=
EXTT14=
PLAYORDER=
